<svg xmlns="http://www.w3.org/2000/svg" viewBox="0 0 516.74 517.28"><defs><style>.cls-1{fill:#00b5ad;}.cls-2{fill:none;}.cls-3{fill:#231f20;}.cls-4{font-size:30.97px;font-family:FuturaBT-Book, Futura Bk BT;}.cls-4,.cls-5{fill:#fff;}</style></defs><title>Asset 9</title><g id="Layer_2" data-name="Layer 2"><g id="Layer_1-2" data-name="Layer 1"><path class="cls-1" d="M506.69,334.5a258.37,258.37,0,0,0,10-50.76L480,281.81V234.19l36.67-1.92a258.3,258.3,0,0,0-10.33-50.71l-34.65,12.27-18.22-44,32.77-15.63A260.09,260.09,0,0,0,457,91.65L430.3,115.73,396.63,82.06l23.64-26.24a259.83,259.83,0,0,0-43-27.91l-15,31.5-44-18.22L329.6,9a258.68,258.68,0,0,0-50.1-9l-1.75,33.4H230.14L228.43.87A258.12,258.12,0,0,0,179.08,11.5l10.7,30.21-44,18.22L132.35,31.76A260.14,260.14,0,0,0,91.13,60.23l20.55,22.82L78,116.72,55.67,96.61a259.87,259.87,0,0,0-27.26,41.68l26.94,12.84-18.22,44L9.37,185.3A258.44,258.44,0,0,0,0,234.06l29.35,1.54v47.62L.12,284.74a258.33,258.33,0,0,0,9.65,48.7l27.89-9.88,18.22,44L29.07,380.36a259.93,259.93,0,0,0,27.49,41.53L79,401.67l33.67,33.67L92.2,458.08a260.08,260.08,0,0,0,41.38,28.25L147.08,458l44,18.22-10.66,30.1a258.22,258.22,0,0,0,49.42,10.35L231.54,484h47.62l1.74,33.28A258.55,258.55,0,0,0,331,508l-11.43-32.27,44-18.22,15,31.38a259.89,259.89,0,0,0,42.88-28.14l-23.74-26.36,33.67-33.67,26.65,24A260,260,0,0,0,486.86,382L454,366.27l18.22-44ZM287.59,450.94A194.5,194.5,0,1,1,450.67,287.86,194.61,194.61,0,0,1,287.59,450.94Z"/><path class="cls-2" d="M258.37,258.64"/><path class="cls-3" d="M258.37,62.75c-108.19,0-195.89,87.7-195.89,195.89s87.7,195.89,195.89,195.89,195.89-87.7,195.89-195.89S366.56,62.75,258.37,62.75Zm0,316.75A120.85,120.85,0,1,1,379.23,258.64,120.85,120.85,0,0,1,258.37,379.49Z"/><text class="cls-4" transform="matrix(-0.07, -1, 1, -0.07, 112.88, 273.92)">	</text><text class="cls-4" transform="translate(113.76 236.41) rotate(-79.54)">	</text><text class="cls-4" transform="translate(123.7 200.35) rotate(-61.86)">N</text><text class="cls-4" transform="matrix(0.62, -0.78, 0.78, 0.62, 136.48, 176.98)">N</text><text class="cls-4" transform="translate(153.51 156.44) rotate(-42.67)">P</text><text class="cls-4" transform="translate(167.04 143.91) rotate(-34.18)">C</text><text class="cls-4" transform="matrix(0.89, -0.45, 0.45, 0.89, 188.2, 130.25)"> </text><text class="cls-4" transform="translate(198.62 124.52) rotate(-18.94)">M</text><text class="cls-4" transform="translate(225.84 115.73) rotate(-8.97)">A</text><text class="cls-4" transform="matrix(1, -0.04, 0.04, 1, 247.75, 112.75)">I</text><text class="cls-4" transform="translate(258.61 112.26) rotate(2.81)">L</text><text class="cls-4" transform="translate(275.52 113.35) rotate(8.45)"> </text><text class="cls-4" transform="translate(287.32 115.02) rotate(14.76)">B</text><text class="cls-4" transform="matrix(0.92, 0.38, -0.38, 0.92, 306.73, 120.36)">R</text><text class="cls-4" transform="matrix(0.85, 0.53, -0.53, 0.85, 324.61, 127.56)">O</text><text class="cls-4" transform="translate(349.41 143.67) rotate(42.78)">D</text><text class="cls-4" transform="matrix(0.61, 0.79, -0.79, 0.61, 367.68, 160.89)">C</text><text class="cls-4" transform="translate(382.68 181.03) rotate(61.76)">A</text><text class="cls-4" transform="translate(392.86 200.63) rotate(69.78)">S</text><text class="cls-4" transform="translate(399.14 218.19) rotate(77.09)">T</text><text class="cls-4" transform="translate(402.96 236.29) rotate(83.07)"> </text><text class="cls-4" transform="translate(404.29 248.22) rotate(87.74)">	</text><text class="cls-4" transform="translate(404.01 272.44) rotate(97.13)">	</text><text class="cls-4" transform="matrix(-0.37, 0.93, -0.93, -0.37, 395.76, 309)">	</text><text class="cls-4" transform="matrix(-0.6, 0.8, -0.8, -0.6, 378.43, 342.24)">	</text><text class="cls-4" transform="translate(353.24 370) rotate(141.32)">	</text><text class="cls-4" transform="translate(321.94 390.59) rotate(157.37)">S</text><text class="cls-4" transform="translate(304.63 397.62) rotate(164.78)">E</text><text class="cls-4" transform="matrix(-0.99, 0.13, -0.13, -0.99, 286.4, 402.41)">R</text><text class="cls-4" transform="translate(267.19 405) rotate(-179.07)">V</text><text class="cls-4" transform="translate(246.49 404.43) rotate(-173.84)">I</text><text class="cls-4" transform="translate(235.7 403.54) rotate(-166.77)">C</text><text class="cls-4" transform="matrix(-0.93, -0.37, 0.37, -0.93, 211.36, 397.37)">E</text><text class="cls-4" transform="matrix(-0.88, -0.47, 0.47, -0.88, 193.93, 390)"> </text><text class="cls-4" transform="matrix(-0.84, -0.54, 0.54, -0.84, 183.36, 384.25)"> </text><text class="cls-4" transform="translate(173.33 377.68) rotate(-142.63)"> </text><text class="cls-4" transform="matrix(-0.74, -0.67, 0.67, -0.74, 163.86, 370.3)">	</text><path class="cls-1" d="M258.38,306.73H222a23.82,23.82,0,0,1-23.6-23.64c0-15.95.24-31.9-.09-47.84-.28-13.53,11.2-24.89,24.72-24.71,24,.31,48,.07,72,.09,12.48,0,23.28,10.67,23.35,23.13q.13,25.17,0,50.33c0,11.53-11.09,22.53-22.63,22.62-6.23,0-12.46,0-18.69,0ZM309.14,236c-1.1.84-1.76,1.32-2.39,1.83Q287.1,253.9,267.44,270c-6.3,5.14-11.59,5.21-17.93.11-9.18-7.39-18.3-14.86-27.43-22.32-4.67-3.82-9.29-7.69-14.46-12,.16,1.54.22,2.4.34,3.26,1.08,7.34,5.2,12.83,10.81,17.29q15.79,12.55,31.73,24.91c5.12,4,10.64,3.94,15.78,0,8.46-6.57,16.92-13.14,25.27-19.84a133.73,133.73,0,0,0,11.57-10.17C307.06,247.24,308.69,242.11,309.14,236Z"/><path class="cls-5" d="M326.82,186.22c-6.28-3.3-11.69-4.72-18.1-4.49a62.17,62.17,0,0,0-8.49,1.22,2.21,2.21,0,0,0-1.72,2.74,2.3,2.3,0,0,0,2.88,1.64l1.06-.26a30.2,30.2,0,0,1,25.47,5.32,29.75,29.75,0,0,1,10.68,14.81,2.3,2.3,0,1,0,4.33-1.44A34.54,34.54,0,0,0,326.82,186.22Zm-5.44,8.72a24.89,24.89,0,0,0-17.57-2.31c-1.57.37-2.35,1.42-2.06,2.76s1.5,2,3.08,1.7A20.23,20.23,0,0,1,328.65,210a2.38,2.38,0,0,0,3,1.62,2.33,2.33,0,0,0,1.31-3.19A24.88,24.88,0,0,0,321.38,194.94Zm-4.95,8.75a14.64,14.64,0,0,0-9.32-1.51,2.35,2.35,0,0,0-2.24,2.64c.19,1.36,1.38,2.12,3,1.89a10.28,10.28,0,0,1,11.08,6,2.37,2.37,0,0,0,3.15,1.44c1.27-.55,1.69-1.89,1-3.37A15,15,0,0,0,316.43,203.68Z"/><path d="M326.82,186.22a34.54,34.54,0,0,1,16.1,19.55,2.3,2.3,0,1,1-4.33,1.44,29.75,29.75,0,0,0-10.68-14.81,30.2,30.2,0,0,0-25.47-5.32l-1.06.26a2.3,2.3,0,0,1-2.88-1.64,2.21,2.21,0,0,1,1.72-2.74,62.17,62.17,0,0,1,8.49-1.22C315.13,181.5,320.53,182.92,326.82,186.22Z"/><path d="M321.38,194.94a24.88,24.88,0,0,1,11.57,13.47,2.33,2.33,0,0,1-1.31,3.19,2.38,2.38,0,0,1-3-1.62,20.23,20.23,0,0,0-23.82-12.89c-1.57.34-2.79-.32-3.08-1.7s.49-2.39,2.06-2.76A24.89,24.89,0,0,1,321.38,194.94Z"/><path d="M316.43,203.68a15,15,0,0,1,6.67,7.08c.67,1.47.25,2.82-1,3.37a2.37,2.37,0,0,1-3.15-1.44,10.28,10.28,0,0,0-11.08-6c-1.6.22-2.78-.53-3-1.89a2.35,2.35,0,0,1,2.24-2.64A14.64,14.64,0,0,1,316.43,203.68Z"/></g></g></svg>