<svg xmlns="http://www.w3.org/2000/svg" viewBox="0 0 177.72 177.91"><defs><style>.cls-1{fill:none;}.cls-2{fill:#fff;}</style></defs><title>Asset 11</title><g id="Layer_2" data-name="Layer 2"><g id="Layer_1-2" data-name="Layer 1"><path class="cls-1" d="M53.64,149.77"/><path class="cls-2" d="M174.27,115a88.86,88.86,0,0,0,3.46-17.46l-12.65-.66V80.54l12.61-.66a88.84,88.84,0,0,0-3.55-17.44l-11.92,4.22-6.27-15.13,11.27-5.37a89.45,89.45,0,0,0-10-14.64L148,39.8,136.41,28.22l8.13-9a89.37,89.37,0,0,0-14.8-9.6l-5.17,10.83-15.13-6.27,3.92-11.05A89,89,0,0,0,96.13,0l-.6,11.49H79.15L78.57.3A88.79,88.79,0,0,0,61.59,4l3.68,10.39L50.14,20.61l-4.62-9.69a89.46,89.46,0,0,0-14.18,9.79l7.07,7.85L26.83,40.15l-7.68-6.92A89.39,89.39,0,0,0,9.77,47.56L19,52,12.77,67.11,3.22,63.73A88.88,88.88,0,0,0,0,80.5L10.1,81V97.41L0,97.93a88.85,88.85,0,0,0,3.32,16.75l9.59-3.4,6.27,15.13L10,130.82a89.41,89.41,0,0,0,9.45,14.28l7.72-7,11.58,11.58-7,7.82a89.46,89.46,0,0,0,14.23,9.72l4.64-9.74,15.13,6.27-3.67,10.35a88.81,88.81,0,0,0,17,3.56l.59-11.24H96l.6,11.45a88.92,88.92,0,0,0,17.21-3.2l-3.93-11.1L125,157.34l5.15,10.79a89.39,89.39,0,0,0,14.75-9.68l-8.16-9.07,11.58-11.58,9.16,8.25a89.44,89.44,0,0,0,9.95-14.69L156.13,126l6.27-15.13ZM95.63,22.43c-2.23-.21-4.49-.33-6.77-.33s-4.61.12-6.87.34A68.39,68.39,0,0,1,95.63,22.43Zm-16.82.39c.85-.12,1.69-.23,2.53-.32-.89.09-1.77.21-2.65.34Zm58,86.46c0,9.21-8.85,18-18.06,18.05-5,0-9.94,0-14.92,0h-44A19,19,0,0,1,41,108.47c0-12.73.19-25.46-.07-38.18A19.63,19.63,0,0,1,60.65,50.56c19.16.25,38.32.05,57.47.08A19,19,0,0,1,136.76,69.1Q136.86,89.19,136.77,109.27Z"/><path class="cls-2" d="M96.1,98c-5,4.1-9.25,4.16-14.31.09C74.46,92.2,67.18,86.24,59.9,80.29c-3.73-3-7.41-6.14-11.54-9.56.13,1.23.17,1.92.27,2.6.86,5.86,4.15,10.24,8.63,13.8q12.6,10,25.33,19.88c4.09,3.18,8.5,3.14,12.59,0,6.75-5.24,13.5-10.48,20.17-15.83A106.74,106.74,0,0,0,124.59,83c3.13-3.17,4.43-7.26,4.79-12.16-.88.67-1.4,1.05-1.9,1.46Q111.79,85.17,96.1,98Z"/></g></g></svg>